<?xml version="1.0" encoding="UTF-8" standalone="no"?> <svg width="512" height="512" viewBox="0 0 512 512" fill="none" xmlns="http://www.w3.org/2000/svg">
<path d="M162.244 416H152V444.6C151.999 447.547 153.02 450.402 154.887 452.681C156.755 454.96 159.355 456.522 162.244 457.1V457.1C208.292 466.309 255.708 466.309 301.756 457.1V457.1C304.645 456.522 307.245 454.96 309.113 452.681C310.98 450.402 312.001 447.547 312 444.6V416H301.756C255.708 425.21 208.292 425.21 162.244 416V416Z" fill="#CBCBCB"/>
<path d="M232 271.043H48L51.559 289.728C59.5588 331.726 81.9577 369.617 114.896 396.874C147.833 424.13 189.247 439.043 232 439.043V439.043C274.753 439.043 316.167 424.13 349.104 396.874C382.042 369.617 404.441 331.726 412.441 289.728L416 271.043H232Z" fill="#E2E2E2"/>
<path d="M232 359.043C338.039 359.043 424 312.481 424 255.043C424 197.605 338.039 151.043 232 151.043C125.961 151.043 40 197.605 40 255.043C40 312.481 125.961 359.043 232 359.043Z" fill="#CBCBCB"/>
<path d="M232 359.043C336.791 359.043 421.74 319.644 421.74 271.043C421.74 222.442 336.791 183.043 232 183.043C127.21 183.043 42.26 222.442 42.26 271.043C42.26 319.644 127.21 359.043 232 359.043Z" fill="#EE9D0D"/>
<path d="M248.422 316.7L230 320.077C228.253 320.397 226.458 320.326 224.742 319.868C223.026 319.41 221.434 318.577 220.079 317.429C218.724 316.281 217.641 314.847 216.908 313.23C216.174 311.613 215.809 309.853 215.838 308.077L216.258 281.926L247.734 276.156L257.404 300.456C258.061 302.106 258.344 303.881 258.232 305.653C258.12 307.425 257.617 309.15 256.758 310.704C255.898 312.258 254.705 313.602 253.264 314.639C251.822 315.676 250.169 316.38 248.422 316.7V316.7Z" fill="#A3612D"/>
<path d="M224.788 239.698C233.136 238.168 241.75 240.016 248.735 244.837C255.72 249.657 260.504 257.055 262.034 265.403L263.837 275.239C264.124 276.804 263.778 278.419 262.874 279.729C261.97 281.039 260.583 281.936 259.018 282.223L207.87 291.6C206.305 291.887 204.69 291.54 203.38 290.636C202.071 289.733 201.174 288.345 200.887 286.78L199.083 276.944C197.553 268.596 199.401 259.982 204.222 252.998C209.042 246.013 216.44 241.229 224.788 239.698V239.698Z" fill="#7A4922"/>
<path d="M305.175 288.426L292.217 278.956C290.988 278.058 289.974 276.899 289.248 275.562C288.522 274.225 288.101 272.743 288.016 271.224C287.932 269.704 288.185 268.185 288.759 266.776C289.332 265.366 290.212 264.102 291.333 263.073L307.852 247.918L330 264.1L320.58 284.442C319.941 285.823 319.003 287.046 317.834 288.021C316.665 288.996 315.294 289.699 313.82 290.08C312.347 290.462 310.807 290.511 309.312 290.225C307.817 289.939 306.404 289.324 305.175 288.426Z" fill="#A3612D"/>
<path d="M339.154 228.327C345.027 232.619 348.955 239.069 350.073 246.257C351.191 253.445 349.408 260.782 345.116 266.656L340.059 273.576C339.254 274.677 338.045 275.413 336.697 275.623C335.349 275.833 333.973 275.498 332.872 274.694L296.887 248.397C295.785 247.592 295.049 246.383 294.839 245.035C294.63 243.687 294.964 242.311 295.769 241.21L300.826 234.29C305.118 228.416 311.567 224.489 318.755 223.371C325.943 222.252 333.28 224.035 339.154 228.327V228.327Z" fill="#7A4922"/>
<path d="M126.027 316.644H174.027L161 284.072C160.61 283.097 160.031 282.208 159.298 281.456C158.564 280.704 157.689 280.104 156.723 279.69C155.757 279.276 154.72 279.056 153.669 279.044C152.618 279.031 151.575 279.225 150.6 279.615L125.032 289.843C123.138 290.601 121.604 292.054 120.746 293.905C119.887 295.756 119.768 297.865 120.413 299.8L126.027 316.644Z" fill="#A3612D"/>
<path d="M152 255.043C160.837 255.043 168 247.88 168 239.043C168 230.206 160.837 223.043 152 223.043C143.163 223.043 136 230.206 136 239.043C136 247.88 143.163 255.043 152 255.043Z" fill="#B2750A"/>
<path d="M368 271.045L414.166 202.074C422.046 190.301 433.302 181.185 446.455 175.924L450.345 174.368C454.684 172.632 459.518 172.591 463.886 174.251C468.255 175.912 471.84 179.154 473.93 183.335V183.335C475.025 185.523 475.677 187.906 475.851 190.347C476.025 192.788 475.716 195.239 474.942 197.561C474.168 199.882 472.945 202.029 471.341 203.877C469.738 205.726 467.786 207.24 465.597 208.335V208.335C455.522 213.372 446.806 220.758 440.184 229.871L410.263 271.046L368 271.045Z" fill="#E2E2E2"/>
<path d="M467.59 176.149C464.456 175.756 461.273 176.165 458.34 177.339L454.46 178.889C441.305 184.149 430.049 193.265 422.17 205.039L377.99 271.039H368L414.17 202.069C422.049 190.295 433.305 181.179 446.46 175.919L450.34 174.369C453.145 173.248 456.18 172.824 459.184 173.134C462.189 173.444 465.073 174.478 467.59 176.149Z" fill="#ECEBE6"/>
<path d="M228 127.043C225.878 127.043 223.843 126.2 222.343 124.7C220.843 123.2 220 121.165 220 119.043C220 110.62 223.089 105.987 225.344 102.604C227.112 99.951 228 98.62 228 95.042C228 91.464 227.112 90.132 225.344 87.478C223.088 84.099 220 79.463 220 71.041C220 62.619 223.089 57.986 225.344 54.604C227.112 51.951 228 50.62 228 47.043C228 44.9212 228.843 42.8864 230.343 41.3861C231.843 39.8858 233.878 39.043 236 39.043C238.122 39.043 240.157 39.8858 241.657 41.3861C243.157 42.8864 244 44.9212 244 47.043C244 55.465 240.911 60.098 238.656 63.479C236.888 66.133 236 67.464 236 71.041C236 74.618 236.888 75.95 238.656 78.603C240.911 81.986 244 86.619 244 95.042C244 103.465 240.912 108.097 238.656 111.479C236.888 114.133 236 115.465 236 119.043C236 121.165 235.157 123.2 233.657 124.7C232.157 126.2 230.122 127.043 228 127.043V127.043Z" fill="#EEB436"/>
<path d="M172 135.043C169.878 135.043 167.843 134.2 166.343 132.7C164.843 131.2 164 129.165 164 127.043C164 118.62 167.089 113.987 169.344 110.604C171.112 107.951 172 106.62 172 103.042C172 99.464 171.112 98.132 169.344 95.478C167.088 92.099 164 87.463 164 79.041C164 70.619 167.089 65.986 169.344 62.604C171.112 59.951 172 58.62 172 55.043C172 52.9212 172.843 50.8864 174.343 49.3861C175.843 47.8858 177.878 47.043 180 47.043C182.122 47.043 184.157 47.8858 185.657 49.3861C187.157 50.8864 188 52.9212 188 55.043C188 63.465 184.911 68.098 182.656 71.479C180.888 74.133 180 75.464 180 79.041C180 82.618 180.888 83.95 182.656 86.603C184.911 89.986 188 94.619 188 103.042C188 111.465 184.912 116.097 182.656 119.479C180.888 122.133 180 123.465 180 127.043C180 129.165 179.157 131.2 177.657 132.7C176.157 134.2 174.122 135.043 172 135.043Z" fill="#EEB436"/>
<path d="M284 135.043C281.878 135.043 279.843 134.2 278.343 132.7C276.843 131.2 276 129.165 276 127.043C276 118.62 279.089 113.987 281.344 110.604C283.112 107.951 284 106.62 284 103.042C284 99.464 283.112 98.132 281.344 95.478C279.088 92.099 276 87.463 276 79.041C276 70.619 279.089 65.986 281.344 62.604C283.112 59.951 284 58.62 284 55.043C284 52.9212 284.843 50.8864 286.343 49.3861C287.843 47.8858 289.878 47.043 292 47.043C294.122 47.043 296.157 47.8858 297.657 49.3861C299.157 50.8864 300 52.9212 300 55.043C300 63.465 296.911 68.098 294.656 71.479C292.888 74.133 292 75.464 292 79.041C292 82.618 292.888 83.95 294.656 86.603C296.911 89.986 300 94.619 300 103.042C300 111.465 296.912 116.097 294.656 119.479C292.888 122.133 292 123.465 292 127.043C292 129.165 291.157 131.2 289.657 132.7C288.157 134.2 286.122 135.043 284 135.043Z" fill="#EEB436"/>
<path d="M269.9 263.959C267.987 253.524 262.007 244.277 253.275 238.251C244.544 232.225 233.777 229.915 223.342 231.828C212.907 233.741 203.66 239.721 197.634 248.452C191.608 257.184 189.298 267.951 191.211 278.386L193.011 288.222C193.606 291.441 195.308 294.351 197.823 296.447C200.338 298.543 203.507 299.693 206.781 299.698C207.181 299.698 207.576 299.679 207.976 299.644L207.843 307.944C207.8 310.595 208.284 313.228 209.268 315.69C210.252 318.152 211.716 320.394 213.574 322.285C215.432 324.177 217.648 325.68 220.092 326.707C222.536 327.734 225.161 328.265 227.812 328.269C229.031 328.269 230.247 328.158 231.446 327.938L249.865 324.562C252.775 324.028 255.531 322.855 257.933 321.128C260.335 319.401 262.324 317.162 263.757 314.573C265.189 311.985 266.029 309.11 266.217 306.157C266.404 303.205 265.934 300.247 264.841 297.498L261.77 289.78C265.114 288.823 267.983 286.657 269.82 283.702C271.656 280.748 272.328 277.216 271.705 273.794L269.9 263.959ZM210.8 257.541C213.496 253.634 217.29 250.615 221.701 248.864C226.113 247.114 230.945 246.711 235.586 247.706C240.227 248.701 244.469 251.051 247.775 254.457C251.081 257.863 253.302 262.172 254.159 266.841L255.601 274.711L208.389 283.366L206.946 275.496C206.37 272.397 206.415 269.214 207.077 266.132C207.739 263.05 209.006 260.13 210.805 257.541H210.8ZM249.753 306.831C249.47 307.352 249.073 307.802 248.592 308.148C248.111 308.494 247.558 308.728 246.974 308.831L228.556 312.207C227.974 312.313 227.375 312.29 226.803 312.137C226.232 311.984 225.701 311.706 225.249 311.324C224.798 310.941 224.437 310.463 224.192 309.924C223.948 309.385 223.826 308.799 223.836 308.207L224.019 296.771L245.741 292.789L249.97 303.415C250.194 303.964 250.291 304.556 250.254 305.147C250.217 305.738 250.048 306.314 249.758 306.831H249.753Z" fill="black"/>
<path d="M343.873 221.868C336.283 216.334 326.809 214.037 317.527 215.48C308.246 216.924 299.916 221.99 294.366 229.568L289.31 236.487C287.51 238.949 286.623 241.961 286.8 245.006C286.977 248.051 288.208 250.939 290.281 253.177L285.925 257.177C283.931 259.005 282.368 261.254 281.348 263.759C280.329 266.265 279.878 268.966 280.028 271.667C280.178 274.369 280.926 277.003 282.218 279.38C283.509 281.757 285.312 283.818 287.496 285.415L300.455 294.885C302.639 296.481 305.151 297.572 307.808 298.08C310.465 298.589 313.202 298.501 315.821 297.824C318.44 297.147 320.877 295.897 322.955 294.164C325.032 292.431 326.7 290.26 327.837 287.805L330.324 282.434C332.06 283.257 333.957 283.685 335.878 283.688C336.564 283.687 337.248 283.634 337.926 283.529C339.633 283.268 341.271 282.671 342.746 281.773C344.22 280.875 345.502 279.693 346.517 278.297L351.574 271.376C357.108 263.786 359.405 254.311 357.962 245.029C356.518 235.748 351.451 227.418 343.873 221.868V221.868ZM313.317 281.079C313.175 281.385 312.967 281.657 312.707 281.873C312.448 282.09 312.143 282.246 311.816 282.331C311.489 282.416 311.147 282.427 310.815 282.364C310.483 282.3 310.169 282.164 309.896 281.965L296.937 272.495C296.664 272.295 296.438 272.038 296.276 271.741C296.115 271.444 296.021 271.115 296.002 270.777C295.983 270.44 296.039 270.102 296.166 269.789C296.293 269.476 296.488 269.194 296.737 268.966L303.271 262.972L317.039 273.034L313.317 281.079ZM338.656 261.934L335.284 266.548L303.913 243.622L307.284 239.009C310.334 234.874 314.897 232.116 319.975 231.338C325.053 230.56 330.233 231.825 334.381 234.856C338.529 237.887 341.307 242.438 342.109 247.512C342.91 252.587 341.668 257.772 338.656 261.934V261.934Z" fill="black"/>
<path d="M168.426 281.098C167.646 279.147 166.489 277.369 165.021 275.865C163.553 274.361 161.804 273.16 159.872 272.333C157.941 271.505 155.865 271.066 153.764 271.04C151.663 271.015 149.577 271.403 147.626 272.184L122.057 282.412C118.271 283.932 115.207 286.838 113.491 290.539C111.774 294.24 111.534 298.456 112.82 302.328L118.436 319.172C118.967 320.765 119.986 322.15 121.348 323.131C122.71 324.113 124.346 324.641 126.025 324.641H174.025C175.332 324.641 176.62 324.321 177.775 323.708C178.93 323.095 179.917 322.209 180.65 321.126C181.383 320.044 181.839 318.798 181.979 317.498C182.119 316.198 181.939 314.884 181.453 313.67L168.426 281.098ZM131.793 308.641L128 297.271L153.569 287.045L162.21 308.645L131.793 308.641Z" fill="black"/>
<path d="M152 263.043C156.747 263.043 161.387 261.635 165.334 258.998C169.28 256.361 172.357 252.613 174.173 248.227C175.99 243.842 176.465 239.016 175.539 234.361C174.613 229.705 172.327 225.429 168.971 222.072C165.614 218.716 161.338 216.43 156.682 215.504C152.027 214.578 147.201 215.053 142.816 216.87C138.43 218.686 134.682 221.763 132.045 225.709C129.408 229.656 128 234.296 128 239.043C128.007 245.406 130.538 251.506 135.038 256.005C139.537 260.505 145.637 263.036 152 263.043V263.043ZM152 231.043C153.582 231.043 155.129 231.512 156.445 232.391C157.76 233.27 158.786 234.52 159.391 235.982C159.997 237.443 160.155 239.052 159.846 240.604C159.538 242.156 158.776 243.581 157.657 244.7C156.538 245.819 155.113 246.581 153.561 246.889C152.009 247.198 150.4 247.04 148.939 246.434C147.477 245.829 146.227 244.803 145.348 243.488C144.469 242.172 144 240.625 144 239.043C144.002 236.922 144.846 234.889 146.346 233.389C147.846 231.889 149.879 231.045 152 231.043Z" fill="black"/>
<path d="M481.086 179.753C478.07 173.804 472.944 169.193 466.709 166.823C460.475 164.453 453.58 164.493 447.374 166.936L443.483 168.492C428.822 174.336 416.281 184.493 407.518 197.62L406.218 199.566C390.338 183.818 367.796 170.466 340.301 160.639C308.09 149.126 270.641 143.039 232.001 143.039C179.408 143.039 129.84 154.2 92.426 174.466C53.459 195.574 32 224.188 32 255.041C32.0069 261.195 32.8698 267.317 34.564 273.233C34.564 273.243 34.572 273.251 34.575 273.261C36.7679 280.77 40.0939 287.9 44.438 294.406C44.4589 294.822 44.5117 295.235 44.596 295.643C50.5229 323.309 62.5128 349.316 79.7018 371.789C96.8909 394.263 118.851 412.644 144 425.608V444.597C144.011 449.39 145.676 454.032 148.714 457.738C151.753 461.444 155.978 463.988 160.675 464.938C207.754 474.403 256.246 474.403 303.325 464.938C308.022 463.988 312.247 461.444 315.286 457.738C318.324 454.032 319.989 449.39 320 444.597V425.61C345.326 412.552 367.416 394.002 384.656 371.316C401.896 348.629 413.852 322.378 419.65 294.48C419.67 294.388 419.678 294.295 419.694 294.203C423.98 287.745 427.264 280.675 429.434 273.233C429.943 271.444 429.812 269.534 429.066 267.831C428.319 266.128 427.002 264.738 425.341 263.901L446.656 234.569C452.531 226.501 460.253 219.957 469.176 215.485C475.488 212.32 480.286 206.78 482.519 200.081C484.752 193.383 484.236 186.072 481.086 179.753V179.753ZM360.943 274.809C361.626 276.088 362.643 277.157 363.886 277.902C365.129 278.647 366.551 279.041 368 279.041H410.034C389.049 320.736 315.747 351.041 232 351.041C142.979 351.041 65.754 316.806 50.628 271.041C65.754 225.276 142.979 191.041 232 191.041C292.6 191.041 349.023 206.767 383.7 233.198L361.349 266.591C360.543 267.796 360.08 269.196 360.009 270.644C359.937 272.091 360.26 273.531 360.943 274.809ZM100.043 188.536C135.157 169.516 182.019 159.041 231.997 159.041C302.123 159.041 365.943 180.129 397.118 213.153L392.618 219.873C355.157 191.747 295.518 175.041 231.995 175.041C151.962 175.041 82.333 200.871 50.461 239.524C56.519 220.57 73.6 202.863 100.046 188.536H100.043ZM304 444.597C303.998 445.693 303.617 446.754 302.922 447.602C302.227 448.449 301.261 449.031 300.187 449.248C255.179 458.298 208.821 458.298 163.813 449.248C162.739 449.031 161.773 448.449 161.078 447.602C160.383 446.754 160.002 445.693 160 444.597V432.963C206.166 451.73 257.834 451.73 304 432.963V444.597ZM342.893 391.624C321.498 409.041 296.302 421.173 269.345 427.038C242.388 432.903 214.428 432.336 187.731 425.383C161.034 418.43 136.35 405.286 115.679 387.016C95.0079 368.746 78.9308 345.864 68.75 320.224C105.1 348.878 164.892 367.041 232 367.041C299.108 367.041 358.9 348.877 395.253 320.223C384.159 348.09 366.137 372.665 342.893 391.621V391.624ZM462.021 201.175C450.805 206.796 441.099 215.022 433.713 225.163L406.188 263.041H382.981L413.858 216.912C413.893 216.86 413.929 216.812 413.958 216.757L420.81 206.519C427.781 196.076 437.758 187.996 449.422 183.348L453.311 181.792C455.859 180.77 458.703 180.773 461.249 181.8C463.795 182.828 465.844 184.8 466.969 187.304C468.094 189.808 468.207 192.65 467.284 195.236C466.361 197.821 464.473 199.949 462.017 201.175H462.021Z" fill="black"/>
<path d="M220 119.043C220 121.165 220.843 123.2 222.343 124.7C223.843 126.2 225.878 127.043 228 127.043C230.122 127.043 232.157 126.2 233.657 124.7C235.157 123.2 236 121.165 236 119.043C236 115.465 236.888 114.133 238.656 111.479C240.912 108.099 244 103.464 244 95.042C244 86.62 240.911 81.986 238.656 78.603C236.888 75.95 236 74.619 236 71.041C236 67.463 236.888 66.133 238.656 63.479C240.911 60.099 244 55.465 244 47.043C244 44.9212 243.157 42.8864 241.657 41.3861C240.157 39.8858 238.122 39.043 236 39.043C233.878 39.043 231.843 39.8858 230.343 41.3861C228.843 42.8864 228 44.9212 228 47.043C228 50.62 227.112 51.951 225.344 54.604C223.089 57.986 220 62.619 220 71.041C220 79.463 223.088 84.096 225.344 87.478C227.112 90.132 228 91.464 228 95.042C228 98.62 227.112 99.951 225.344 102.604C223.089 105.987 220 110.62 220 119.043Z" fill="black"/>
<path d="M164 127.043C164 129.165 164.843 131.2 166.343 132.7C167.843 134.2 169.878 135.043 172 135.043C174.122 135.043 176.157 134.2 177.657 132.7C179.157 131.2 180 129.165 180 127.043C180 123.465 180.888 122.133 182.656 119.479C184.912 116.097 188 111.464 188 103.042C188 94.62 184.911 89.986 182.656 86.603C180.888 83.95 180 82.619 180 79.041C180 75.463 180.888 74.133 182.656 71.479C184.911 68.099 188 63.465 188 55.043C188 52.9212 187.157 50.8864 185.657 49.3861C184.157 47.8858 182.122 47.043 180 47.043C177.878 47.043 175.843 47.8858 174.343 49.3861C172.843 50.8864 172 52.9212 172 55.043C172 58.62 171.112 59.951 169.344 62.604C167.089 65.986 164 70.619 164 79.041C164 87.463 167.088 92.096 169.344 95.478C171.112 98.132 172 99.464 172 103.042C172 106.62 171.112 107.951 169.344 110.604C167.089 113.987 164 118.62 164 127.043Z" fill="black"/>
<path d="M276 127.043C276 129.165 276.843 131.2 278.343 132.7C279.843 134.2 281.878 135.043 284 135.043C286.122 135.043 288.157 134.2 289.657 132.7C291.157 131.2 292 129.165 292 127.043C292 123.465 292.888 122.133 294.656 119.479C296.912 116.097 300 111.464 300 103.042C300 94.62 296.911 89.986 294.656 86.603C292.888 83.95 292 82.619 292 79.041C292 75.463 292.888 74.133 294.656 71.479C296.911 68.099 300 63.465 300 55.043C300 52.9212 299.157 50.8864 297.657 49.3861C296.157 47.8858 294.122 47.043 292 47.043C289.878 47.043 287.843 47.8858 286.343 49.3861C284.843 50.8864 284 52.9212 284 55.043C284 58.62 283.112 59.951 281.344 62.604C279.089 65.986 276 70.619 276 79.041C276 87.463 279.088 92.096 281.344 95.478C283.112 98.132 284 99.464 284 103.042C284 106.62 283.112 107.951 281.344 110.604C279.089 113.987 276 118.62 276 127.043Z" fill="black"/>
</svg>
