<?xml version="1.0" encoding="UTF-8" standalone="no"?> <svg width="64" height="64" viewBox="0 0 64 64" fill="none" xmlns="http://www.w3.org/2000/svg">
<path d="M62.4399 38C62.4399 37.7348 62.3346 37.4804 62.147 37.2929C61.9595 37.1054 61.7052 37 61.4399 37H10.7899C7.28994 37 4.43994 39.58 4.43994 42.74V55.34C4.43994 58.51 7.28994 61.08 10.7899 61.08H61.4399C61.7052 61.08 61.9595 60.9746 62.147 60.7871C62.3346 60.5996 62.4399 60.3452 62.4399 60.08V57.35C62.4399 57.0848 62.3346 56.8304 62.147 56.6429C61.9595 56.4554 61.7052 56.35 61.4399 56.35H10.7899C10.0499 56.35 9.43994 55.89 9.43994 55.35V42.76C9.43994 42.21 10.0499 41.76 10.7899 41.76H61.4399C61.7052 41.76 61.9595 41.6546 62.147 41.4671C62.3346 41.2796 62.4399 41.0252 62.4399 40.76V38Z" fill="#5C5D60"/>
<path d="M13.4399 45.76H58.3799C58.6452 45.76 58.8995 45.6547 59.0871 45.4671C59.2746 45.2796 59.3799 45.0252 59.3799 44.76C59.3799 44.4948 59.2746 44.2404 59.0871 44.0529C58.8995 43.8654 58.6452 43.76 58.3799 43.76H13.4399C13.1747 43.76 12.9204 43.8654 12.7328 44.0529C12.5453 44.2404 12.4399 44.4948 12.4399 44.76C12.4399 45.0252 12.5453 45.2796 12.7328 45.4671C12.9204 45.6547 13.1747 45.76 13.4399 45.76V45.76Z" fill="#A9B3B6"/>
<path d="M58.3799 48.05H13.4399C13.1747 48.05 12.9204 48.1554 12.7328 48.3429C12.5453 48.5305 12.4399 48.7848 12.4399 49.05C12.4399 49.3153 12.5453 49.5696 12.7328 49.7572C12.9204 49.9447 13.1747 50.05 13.4399 50.05H58.3799C58.6452 50.05 58.8995 49.9447 59.0871 49.7572C59.2746 49.5696 59.3799 49.3153 59.3799 49.05C59.3799 48.7848 59.2746 48.5305 59.0871 48.3429C58.8995 48.1554 58.6452 48.05 58.3799 48.05Z" fill="#A9B3B6"/>
<path d="M58.3799 52.3401H13.4399C13.1747 52.3401 12.9204 52.4454 12.7328 52.633C12.5453 52.8205 12.4399 53.0749 12.4399 53.3401C12.4399 53.6053 12.5453 53.8597 12.7328 54.0472C12.9204 54.2347 13.1747 54.3401 13.4399 54.3401H58.3799C58.6452 54.3401 58.8995 54.2347 59.0871 54.0472C59.2746 53.8597 59.3799 53.6053 59.3799 53.3401C59.3799 53.0749 59.2746 52.8205 59.0871 52.633C58.8995 52.4454 58.6452 52.3401 58.3799 52.3401Z" fill="#A9B3B6"/>
<path d="M36.45 28.57H30.45C30.1847 28.57 29.9304 28.6754 29.7428 28.8629C29.5553 29.0505 29.45 29.3048 29.45 29.57V31.51C29.45 32.4648 29.8292 33.3805 30.5044 34.0556C31.1795 34.7307 32.0952 35.11 33.0499 35.11C33.583 35.207 34.1306 35.1873 34.6553 35.0523C35.18 34.9173 35.6692 34.6703 36.0892 34.3282C36.5093 33.986 36.8502 33.557 37.0886 33.0705C37.3269 32.584 37.457 32.0516 37.47 31.51V29.57C37.47 29.437 37.4435 29.3053 37.392 29.1827C37.3405 29.06 37.265 28.9489 37.17 28.8558C37.075 28.7626 36.9624 28.6894 36.8388 28.6403C36.7151 28.5913 36.5829 28.5674 36.45 28.57V28.57Z" fill="#85837D"/>
<path d="M33.4399 3.77002C33.1747 3.77002 32.9204 3.87538 32.7328 4.06291C32.5453 4.25045 32.4399 4.5048 32.4399 4.77002V7.82002C32.4399 8.08524 32.5453 8.33959 32.7328 8.52713C32.9204 8.71466 33.1747 8.82002 33.4399 8.82002C33.7052 8.82002 33.9595 8.71466 34.147 8.52713C34.3346 8.33959 34.4399 8.08524 34.4399 7.82002V4.77002C34.4399 4.5048 34.3346 4.25045 34.147 4.06291C33.9595 3.87538 33.7052 3.77002 33.4399 3.77002V3.77002Z" fill="#A9B3B6"/>
<path d="M41.49 12.15C41.6216 12.1508 41.7521 12.1256 41.8739 12.0758C41.9957 12.026 42.1066 11.9527 42.2 11.86L44.35 9.70002C44.5138 9.50872 44.5994 9.26264 44.5897 9.01096C44.58 8.75929 44.4757 8.52055 44.2976 8.34245C44.1195 8.16436 43.8807 8.06003 43.6291 8.05031C43.3774 8.04059 43.1313 8.12619 42.94 8.29002L40.78 10.45C40.6424 10.5904 40.5492 10.7682 40.5121 10.9613C40.475 11.1543 40.4956 11.354 40.5714 11.5354C40.6471 11.7168 40.7747 11.8718 40.9381 11.9812C41.1014 12.0905 41.2934 12.1492 41.49 12.15Z" fill="#A9B3B6"/>
<path d="M47.8799 18.21H44.8199C44.5547 18.21 44.3004 18.3153 44.1128 18.5029C43.9253 18.6904 43.8199 18.9447 43.8199 19.21C43.8199 19.4752 43.9253 19.7295 44.1128 19.9171C44.3004 20.1046 44.5547 20.21 44.8199 20.21H47.8799C48.1452 20.21 48.3995 20.1046 48.5871 19.9171C48.7746 19.7295 48.8799 19.4752 48.8799 19.21C48.8799 18.9447 48.7746 18.6904 48.5871 18.5029C48.3995 18.3153 48.1452 18.21 47.8799 18.21Z" fill="#A9B3B6"/>
<path d="M42.1899 26.5499C41.9976 26.363 41.7389 26.26 41.4708 26.2638C41.2026 26.2675 40.9469 26.3777 40.7599 26.5699C40.5729 26.7622 40.47 27.0209 40.4737 27.2891C40.4775 27.5573 40.5876 27.813 40.7799 27.9999L41.8599 28.9999L42.9399 30.0799C43.1312 30.2438 43.3773 30.3294 43.6289 30.3196C43.8806 30.3099 44.1194 30.2056 44.2975 30.0275C44.4755 29.8494 44.5799 29.6107 44.5896 29.359C44.5993 29.1073 44.5137 28.8612 44.3499 28.6699L42.1899 26.5499Z" fill="#A9B3B6"/>
<path d="M24.6799 26.5499L22.5199 28.7099C22.3789 28.8498 22.2827 29.0285 22.2437 29.2233C22.2046 29.418 22.2244 29.62 22.3006 29.8034C22.3767 29.9869 22.5058 30.1435 22.6713 30.2533C22.8368 30.3631 23.0313 30.4211 23.2299 30.4199C23.4937 30.4162 23.7453 30.3083 23.9299 30.1199L26.0899 27.9999C26.2822 27.813 26.3923 27.5573 26.3961 27.2891C26.3998 27.0209 26.2969 26.7622 26.1099 26.5699C25.923 26.3777 25.6673 26.2675 25.3991 26.2638C25.1309 26.26 24.8722 26.363 24.6799 26.5499Z" fill="#A9B3B6"/>
<path d="M23.05 19.21C23.05 18.9447 22.9446 18.6904 22.7571 18.5029C22.5696 18.3153 22.3152 18.21 22.05 18.21H19C18.7348 18.21 18.4804 18.3153 18.2929 18.5029C18.1054 18.6904 18 18.9447 18 19.21C18 19.4752 18.1054 19.7295 18.2929 19.9171C18.4804 20.1046 18.7348 20.21 19 20.21H22.05C22.3152 20.21 22.5696 20.1046 22.7571 19.9171C22.9446 19.7295 23.05 19.4752 23.05 19.21Z" fill="#A9B3B6"/>
<path d="M25 9.37002L23.93 8.29002C23.7896 8.15241 23.6118 8.05923 23.4187 8.02213C23.2257 7.98502 23.026 8.00564 22.8446 8.0814C22.6632 8.15715 22.5081 8.28469 22.3988 8.44808C22.2895 8.61146 22.2308 8.80344 22.23 9.00002C22.2311 9.26236 22.3352 9.51376 22.52 9.70002L24.68 11.86C24.7734 11.9527 24.8842 12.026 25.0061 12.0758C25.1279 12.1256 25.2584 12.1508 25.39 12.15C25.5857 12.1473 25.7763 12.0871 25.9382 11.9771C26.1001 11.867 26.2261 11.7119 26.3006 11.5309C26.3751 11.3499 26.3949 11.151 26.3575 10.9588C26.32 10.7667 26.227 10.5898 26.09 10.45L25 9.37002Z" fill="#A9B3B6"/>
<path d="M41.1099 16.9401C38.8099 7.94013 25.6799 9.55013 25.5599 18.8001C25.5602 20.6601 26.2191 22.4598 27.4199 23.8801C28.7581 25.4695 29.4693 27.4931 29.4199 29.5701C29.4199 29.8353 29.5253 30.0897 29.7128 30.2772C29.9004 30.4648 30.1547 30.5701 30.4199 30.5701H36.4199C36.6852 30.5701 36.9395 30.4648 37.127 30.2772C37.3146 30.0897 37.4199 29.8353 37.4199 29.5701C37.4007 27.4378 38.1537 25.3705 39.5399 23.7501C40.2998 22.8078 40.8359 21.7053 41.1079 20.5256C41.3798 19.346 41.3805 18.1201 41.1099 16.9401V16.9401Z" fill="#FEBE10"/>
</svg>
