<?xml version="1.0" encoding="utf-8"?>
<!-- Generator: Adobe Illustrator 23.0.2, SVG Export Plug-In . SVG Version: 6.00 Build 0)  -->
<svg version="1.1" id="Layer_1" xmlns="http://www.w3.org/2000/svg" xmlns:xlink="http://www.w3.org/1999/xlink" x="0px" y="0px"
	 viewBox="0 0 222.3118 137.7881" enable-background="new 0 0 222.3118 137.7881" xml:space="preserve">
<g>
	<path d="M78.0059,123.2447H44.0029V90.5502h22.6632c3.8905,0,3.8905-14.1474,0-14.1474H11.3398c-3.8906,0-3.8906,14.1474,0,14.1474
		h22.6631v32.6945H0v10h78.0059V123.2447z"/>
	<rect x="1.6767" y="134.7918" width="5.6842" height="2.9053"/>
	<rect x="70.6451" y="134.7918" width="5.6842" height="2.9053"/>
	<ellipse transform="matrix(0.7982 -0.6024 0.6024 0.7982 2.9826 53.9089)" cx="81.9593" cy="22.5024" rx="22.5" ry="22.5"/>
	<path d="M80.7559,64.2062c1.874-2.0142,4.4209-3.1777,7.1709-3.2759c0.1211-0.0044,0.2354-0.0063,0.3506-0.0063
		c5.582,0,10.1113,4.3623,10.3115,9.9307l0.2637,7.3647c1.152-4.1762,3.0112-8.0594,5.4423-11.5159
		c-0.112-0.2581-0.2278-0.5287-0.3385-0.7822c-3.301-9.8183-13.1638-17.481-21.3936-14.376
		c-8.2327,3.1044-15.774,13.9566-11.5874,28.864c2.4444,8.511,4.9658,15.4861,8.1277,21.9491L78.001,71.5929
		C77.9023,68.8434,78.8809,66.2198,80.7559,64.2062z"/>
	<path d="M111.1017,116.9456l-16.0533,9.0735c0.9095,1.0764,1.8486,2.1688,2.8309,3.2868
		c10.6869,10.4433,19.9495,7.2919,27.1622,2.6349c0.3536-0.1841,0.7027-0.3834,1.0439-0.6047l9.006-5.8444
		c-0.0764,0.0005-0.1516,0.0058-0.228,0.0058C125.8455,125.4974,117.5638,122.2853,111.1017,116.9456z"/>
	<path d="M219.9297,132.626c4.0532-5.5884,2.8086-13.4043-2.7798-17.4575l-45.399-32.9269c0.3062,1.9221,0.47,3.8909,0.47,5.8979
		c0,7.6723-2.3275,14.81-6.3098,20.7493l36.561,26.517c2.2168,1.6084,4.7842,2.3823,7.3286,2.3823
		C213.6694,137.7881,217.4849,135.9976,219.9297,132.626z"/>
	<path d="M100.2132,102.0788l-2.7523,1.5556L96.29,70.9371c-0.1582-4.415-3.8975-7.854-8.2813-7.7085
		c-4.416,0.1582-7.8672,3.8662-7.709,8.2817l1.6426,45.8525c0.1006,2.792,1.6494,5.3296,4.0879,6.6943
		c1.2139,0.6797,2.5605,1.019,3.9072,1.019c1.3574,0,2.7158-0.3452,3.9365-1.0356l15.4109-8.7104
		C105.3737,111.6488,102.256,107.1381,100.2132,102.0788z"/>
	<path d="M134.8633,53.7817c-18.9753,0-34.3578,15.3825-34.3578,34.3578s15.3825,34.3579,34.3578,34.3579
		s34.3579-15.3826,34.3579-34.3579S153.8387,53.7817,134.8633,53.7817z M118.6949,88.1396c0-8.9296,7.2388-16.1684,16.1684-16.1684
		c8.9296,0,16.1685,7.2388,16.1685,16.1684c0,8.9296-7.2388,16.1685-16.1685,16.1685
		C125.9338,104.308,118.6949,97.0692,118.6949,88.1396z"/>
	
		<ellipse transform="matrix(0.7071 -0.7071 0.7071 0.7071 -22.8235 121.1783)" cx="134.8634" cy="88.1396" rx="8.2105" ry="8.2105"/>
</g>
</svg>
